<svg width="20.000000" height="20.000000" viewBox="0 0 20 20" fill="none" xmlns="http://www.w3.org/2000/svg" xmlns:xlink="http://www.w3.org/1999/xlink">
	<desc>
			Created with Pixso.
	</desc>
	<defs/>
	<path id="Vector" d="M14.6348 0.837891L12.3203 0.833984C9.7207 0.833984 8.04102 2.60547 8.04102 5.3457L8.04102 7.42578L5.71289 7.42578C5.51172 7.42578 5.34961 7.59375 5.34961 7.80078L5.34961 10.8145C5.34961 11.0215 5.51172 11.1875 5.71289 11.1875L8.04102 11.1875L8.04102 18.793C8.04102 19 8.20312 19.168 8.4043 19.168L11.4414 19.168C11.6426 19.168 11.8047 19 11.8047 18.793L11.8047 11.1875L14.5254 11.1875C14.7266 11.1875 14.8887 11.0215 14.8887 10.8145L14.8906 7.80078C14.8906 7.70117 14.8516 7.60547 14.7832 7.53516C14.7148 7.46484 14.623 7.42578 14.5254 7.42578L11.8047 7.42578L11.8047 5.66211C11.8047 4.81445 12.002 4.38477 13.0762 4.38477L14.6348 4.38477C14.8359 4.38477 14.998 4.2168 14.998 4.00977L14.998 1.21094C14.998 1.00586 14.8359 0.837891 14.6348 0.837891Z" fill="#FFFFFF" fill-opacity="1.000000" fill-rule="nonzero"/>
</svg>
