<svg width="48.000000" height="48.000000" viewBox="0 0 48 48" fill="none" xmlns="http://www.w3.org/2000/svg" xmlns:xlink="http://www.w3.org/1999/xlink">
	<desc>
			Created with Pixso.
	</desc>
	<defs/>
	<circle id="shape" cx="24.000000" cy="24.000000" r="24.000000" fill="#FF5A30" fill-opacity="1.000000"/>
	<path id="Line (Stroke)" d="M26.793 18.793C27.1836 18.4023 27.8164 18.4023 28.207 18.793L32.707 23.293C33.0977 23.6836 33.0977 24.3164 32.707 24.707L28.207 29.207C27.8164 29.5977 27.1836 29.5977 26.793 29.207C26.4023 28.8164 26.4023 28.1836 26.793 27.793L29.5859 25L16 25C15.4473 25 15 24.5527 15 24C15 23.4473 15.4473 23 16 23L29.5859 23L26.793 20.207C26.4023 19.8164 26.4023 19.1836 26.793 18.793Z" fill="#FFFFFF" fill-opacity="1.000000" fill-rule="evenodd"/>
</svg>
