<svg width="20.000000" height="20.000000" viewBox="0 0 20 20" fill="none" xmlns="http://www.w3.org/2000/svg" xmlns:xlink="http://www.w3.org/1999/xlink">
	<desc>
			Created with Pixso.
	</desc>
	<defs>
		<clipPath id="clip35_690">
			<rect width="20.000000" height="20.000000" fill="white" fill-opacity="0"/>
		</clipPath>
	</defs>
	<g clip-path="url(#clip35_690)">
		<path d="M1.66602 3.66797C1.66602 2.5625 2.5625 1.66602 3.66797 1.66602C4.77148 1.66602 5.66797 2.5625 5.66797 3.66797C5.66797 4.77148 4.77148 5.6875 3.66797 5.6875C2.5625 5.6875 1.66602 4.77148 1.66602 3.66797ZM18.3281 18.332L18.332 18.332L18.332 12.2188C18.332 9.22852 17.6895 6.92578 14.1934 6.92578C12.5117 6.92578 11.3848 7.84766 10.9238 8.72266L10.875 8.72266L10.875 7.20508L7.56055 7.20508L7.56055 18.332L11.0117 18.332L11.0117 12.8223C11.0117 11.3711 11.2871 9.96875 13.084 9.96875C14.8535 9.96875 14.8809 11.625 14.8809 12.916L14.8809 18.332L18.3281 18.332ZM1.94141 7.20508L5.39648 7.20508L5.39648 18.332L1.94141 18.332L1.94141 7.20508Z" fill="#FFFFFF" fill-opacity="1.000000" fill-rule="evenodd"/>
	</g>
</svg>
