<svg width="20.000000" height="20.000000" viewBox="0 0 20 20" fill="none" xmlns="http://www.w3.org/2000/svg" xmlns:xlink="http://www.w3.org/1999/xlink">
	<desc>
			Created with Pixso.
	</desc>
	<defs/>
	<path id="Vector" d="M18.75 4.81055C18.1055 5.08203 17.4141 5.26758 16.6895 5.35156C17.4297 4.92578 17.998 4.25195 18.2676 3.45117C17.5703 3.84375 16.8027 4.13086 15.9863 4.28516C15.3301 3.61523 14.3984 3.19922 13.3652 3.19922C11.3828 3.19922 9.77539 4.73828 9.77539 6.63672C9.77539 6.9043 9.80664 7.16797 9.86914 7.41992C6.88477 7.27539 4.24023 5.90625 2.46875 3.82812C2.16016 4.33398 1.98438 4.92383 1.98438 5.55469C1.98438 6.74805 2.61719 7.80078 3.58008 8.41602C2.99219 8.39648 2.43945 8.24219 1.95508 7.98438L1.95508 8.02734C1.95508 9.69141 3.19141 11.082 4.83398 11.3984C4.5332 11.4746 4.21484 11.5176 3.88672 11.5176C3.65625 11.5176 3.43164 11.4961 3.21094 11.4551C3.66797 12.8203 4.99414 13.8145 6.56445 13.8418C5.33594 14.7637 3.78906 15.3105 2.10547 15.3105C1.81641 15.3105 1.53125 15.2949 1.25 15.2637C2.83984 16.2402 4.72461 16.8105 6.75195 16.8105C13.3574 16.8105 16.9668 11.5723 16.9668 7.03125L16.9551 6.58594C17.6602 6.10352 18.2695 5.49805 18.75 4.81055Z" fill="#FFFFFF" fill-opacity="1.000000" fill-rule="nonzero"/>
</svg>
