<svg width="14.434570" height="12.828125" viewBox="0 0 14.4346 12.8281" fill="none" xmlns="http://www.w3.org/2000/svg" xmlns:xlink="http://www.w3.org/1999/xlink">
	<desc>
			Created with Pixso.
	</desc>
	<defs/>
	<path id="Vector" d="M6.43457 0C4.73633 0 3.1748 0.525391 2.02246 1.40625C0.870117 2.28711 0.101562 3.55273 0.101562 5C0.101562 5.68359 0.274414 6.33203 0.581055 6.91797C0.581055 6.94336 0.580078 6.98047 0.575195 7.03125C0.561523 7.17969 0.526367 7.37891 0.47168 7.61719C0.362305 8.08789 0.194336 8.63281 0.0527344 9.06445C-0.21582 9.87891 0.594727 10.6426 1.39062 10.332C1.84961 10.1543 2.45312 9.93164 2.99023 9.77539C3.25977 9.69727 3.49707 9.63867 3.68262 9.60938C3.80566 9.58984 3.87207 9.58984 3.89648 9.58984C3.90332 9.58984 3.90723 9.58984 3.90723 9.58789C4.68359 9.85352 5.53906 10 6.43457 10C8.13281 10 9.69531 9.47461 10.8467 8.59375C11.999 7.71289 12.7676 6.44727 12.7676 5C12.7676 3.55273 11.999 2.28711 10.8467 1.40625C9.69531 0.525391 8.13281 0 6.43457 0ZM1.43457 5C1.43457 4.05469 1.93359 3.15234 2.83301 2.46484C3.73145 1.77734 5.00293 1.33398 6.43457 1.33398C7.86621 1.33398 9.1377 1.77734 10.0361 2.46484C10.9355 3.15234 11.4346 4.05469 11.4346 5C11.4346 5.94531 10.9355 6.84766 10.0361 7.53516C9.1377 8.22266 7.86621 8.66602 6.43457 8.66602C5.67578 8.66602 4.95996 8.54102 4.31934 8.32031C4.03418 8.2207 3.70312 8.25781 3.47461 8.29297C3.20898 8.33398 2.91113 8.41016 2.61621 8.49609C2.25195 8.60156 1.86621 8.73242 1.51465 8.86133C1.60742 8.55273 1.69824 8.22461 1.77051 7.91797C1.83105 7.6543 1.88184 7.38867 1.90332 7.15234C1.91406 7.03516 1.91895 6.9082 1.90918 6.78711C1.90039 6.67383 1.875 6.50781 1.78711 6.34766C1.55762 5.92578 1.43457 5.4707 1.43457 5ZM13.0635 7.57031C13.3965 6.99414 13.6221 6.36914 13.7168 5.71094C14.1709 6.375 14.4346 7.15039 14.4346 8C14.4346 8.75391 14.2188 9.46094 13.8438 10.082C13.8408 10.0957 13.8369 10.123 13.833 10.166C13.8252 10.2676 13.8262 10.4082 13.8379 10.5781C13.8613 10.916 13.9199 11.3086 13.9766 11.6289C14.1074 12.373 13.3965 13.0117 12.6631 12.7793C12.3174 12.6699 11.873 12.5391 11.4785 12.4492C11.2803 12.4043 11.1084 12.373 10.9746 12.3594C10.8896 12.3516 10.8438 12.3516 10.8271 12.3516L10.8271 12.3516L10.8213 12.3516C10.1826 12.5566 9.49023 12.666 8.76758 12.666C6.91992 12.666 5.18652 11.916 4.13574 10.6992C4.8584 10.8945 5.63184 11 6.43457 11C6.57324 11 6.71094 10.998 6.84668 10.9902C7.41504 11.209 8.0625 11.334 8.76758 11.334C9.36133 11.334 9.92383 11.2422 10.4355 11.0762C10.6689 11 10.9307 11.0156 11.1113 11.0332C11.3193 11.0547 11.5479 11.0977 11.7715 11.1484C12.041 11.209 12.3232 11.2852 12.583 11.3613C12.5508 11.1348 12.5234 10.8965 12.5078 10.668C12.4941 10.4648 12.4893 10.2539 12.5039 10.0605C12.5176 9.89258 12.5518 9.63672 12.6865 9.41797C12.9561 8.98242 13.1016 8.50195 13.1016 8C13.1016 7.85547 13.0889 7.71094 13.0635 7.57031Z" fill="#787A80" fill-opacity="1.000000" fill-rule="evenodd"/>
</svg>
