<svg width="48.000000" height="48.000000" viewBox="0 0 48 48" fill="none" xmlns="http://www.w3.org/2000/svg" xmlns:xlink="http://www.w3.org/1999/xlink">
	<desc>
			Created with Pixso.
	</desc>
	<defs>
		<clipPath id="clip1270_3714">
			<rect id="ic-pantone" width="48.000000" height="48.000000" fill="white" fill-opacity="0"/>
		</clipPath>
	</defs>
	<g clip-path="url(#clip1270_3714)">
		<path id="Vector" d="M9.9375 33.8438C7.61133 33.8438 5.71875 35.7363 5.71875 38.0625C5.71875 40.3887 7.61133 42.2812 9.9375 42.2812C12.2637 42.2812 14.1562 40.3887 14.1562 38.0625C14.1562 35.7363 12.2637 33.8438 9.9375 33.8438ZM9.9375 39.4688C9.16211 39.4688 8.53125 38.8379 8.53125 38.0625C8.53125 37.2871 9.16211 36.6562 9.9375 36.6562C10.7129 36.6562 11.3438 37.2871 11.3438 38.0625C11.3438 38.8379 10.7129 39.4688 9.9375 39.4688Z" fill="#FF5A30" fill-opacity="1.000000" fill-rule="nonzero"/>
		<path id="Vector" d="M45.4619 28.5693C46.4209 27.2705 46.5977 25.46 45.7256 23.9492L40.1035 14.1182C39.1309 12.4336 37.0801 11.665 35.251 12.1543C35.6406 10.4033 34.876 8.52441 33.2422 7.58105L23.5 1.95703C22.1084 1.15332 20.4453 1.23535 19.166 2.02637C18.4238 0.8125 17.0869 0 15.5625 0L4.21875 0C1.89258 0 0 1.89258 0 4.21875C0 5.19434 0 42.6582 0 43.7812C0 46.1074 1.89258 48 4.21875 48C5.31152 48 38.4346 48 43.7812 48C46.1074 48 48 46.1074 48 43.7812L48 32.4375C48 30.708 46.9541 29.2197 45.4619 28.5693ZM16.9688 43.7812C16.9688 44.5566 16.3379 45.1875 15.5625 45.1875L4.21875 45.1875C3.44336 45.1875 2.8125 44.5566 2.8125 43.7812C2.8125 43.1387 2.8125 31.6484 2.8125 31.0312L16.9688 31.0312L16.9688 43.7812ZM16.9688 28.2188L2.8125 28.2188L2.8125 16.875L16.9688 16.875L16.9688 28.2188ZM16.9688 14.0625L2.8125 14.0625L2.8125 4.21875C2.8125 3.44336 3.44336 2.8125 4.21875 2.8125L15.5625 2.8125C16.3379 2.8125 16.9688 3.44336 16.9688 4.21875L16.9688 14.0625ZM19.7812 5.58496L20.1719 4.90723C20.5605 4.23535 21.4219 4.00488 22.0938 4.39258L31.8359 10.0166C32.5078 10.4043 32.7383 11.2666 32.3496 11.9404L30.7246 14.7646C30.6846 14.8252 30.6475 14.8877 30.6172 14.9521L19.7812 33.7871L19.7812 5.58496ZM19.7812 39.4268L32.9268 16.5771L35.6455 15.0078C36.334 14.6094 37.2793 14.8516 37.665 15.5195L43.2871 25.3506C43.6758 26.0244 43.4492 26.8877 42.7686 27.2803C41.7646 27.8623 20.7705 40.0156 19.7812 40.5889L19.7812 39.4268ZM45.1875 43.7812C45.1875 44.5566 44.5566 45.1875 43.7812 45.1875L19.5391 45.1875C19.6895 44.7646 19.7734 44.3115 19.7803 43.8389L41.9033 31.0312L43.7812 31.0312C44.5566 31.0312 45.1875 31.6621 45.1875 32.4375L45.1875 43.7812Z" fill="#FF5A30" fill-opacity="1.000000" fill-rule="nonzero"/>
	</g>
</svg>
