<svg width="50.187500" height="47.468750" viewBox="0 0 50.1875 47.4688" fill="none" xmlns="http://www.w3.org/2000/svg" xmlns:xlink="http://www.w3.org/1999/xlink">
	<desc>
			Created with Pixso.
	</desc>
	<defs>
		<filter id="filter_143_519_dd" x="0.000000" y="0.000000" width="50.187500" height="47.468750" filterUnits="userSpaceOnUse" color-interpolation-filters="sRGB">
			<feFlood flood-opacity="0" result="BackgroundImageFix"/>
			<feColorMatrix in="SourceAlpha" type="matrix" values="0 0 0 0 0 0 0 0 0 0 0 0 0 0 0 0 0 0 127 0" result="hardAlpha"/>
			<feOffset dx="0" dy="4"/>
			<feGaussianBlur stdDeviation="1.33333"/>
			<feComposite in2="hardAlpha" operator="out" k2="-1" k3="1"/>
			<feColorMatrix type="matrix" values="0 0 0 0 0 0 0 0 0 0 0 0 0 0 0 0 0 0 0.25 0"/>
			<feBlend mode="normal" in2="BackgroundImageFix" result="effect_dropShadow_1"/>
			<feBlend mode="normal" in="SourceGraphic" in2="effect_dropShadow_1" result="shape"/>
		</filter>
	</defs>
	<g filter="url(#filter_143_519_dd)">
		<path id="Vector" d="M45.1104 21.1875C45.7793 20.4395 46.1875 19.4531 46.1875 18.375C46.1875 16.0488 44.2949 14.1562 41.9688 14.1562L33.7803 14.1562C34.5918 11.6953 34.9375 8.42969 34.9375 7.03125L34.9375 5.625C34.9375 2.52344 32.4141 0 29.3125 0L27.9062 0C27.2617 0 26.6992 0.439453 26.542 1.06445L25.7764 4.12891C24.7031 8.42188 21.2949 13.1562 17.7686 14.0176C17.1504 12.4531 15.625 11.3438 13.8438 11.3438L5.40625 11.3438C4.62988 11.3438 4 11.9746 4 12.75L4 38.0625C4 38.8379 4.62988 39.4688 5.40625 39.4688L13.8438 39.4688C15.5205 39.4688 16.9727 38.4844 17.6523 37.0645L22.4834 38.6738C24.0635 39.2012 25.71 39.4688 27.376 39.4688L39.1562 39.4688C41.4824 39.4688 43.375 37.5762 43.375 35.25C43.375 34.7012 43.2695 34.1758 43.0791 33.6953C44.8672 33.207 46.1875 31.5684 46.1875 29.625C46.1875 28.5469 45.7793 27.5605 45.1104 26.8125C45.7793 26.0645 46.1875 25.0781 46.1875 24C46.1875 22.9219 45.7793 21.9355 45.1104 21.1875ZM15.25 35.25C15.25 36.0254 14.6191 36.6562 13.8438 36.6562L6.8125 36.6562L6.8125 14.1562L13.8438 14.1562C14.6191 14.1562 15.25 14.7871 15.25 15.5625L15.25 35.25ZM39.1562 22.5938L41.9688 22.5938C42.7441 22.5938 43.375 23.2246 43.375 24C43.375 24.7754 42.7441 25.4062 41.9688 25.4062L39.1562 25.4062C38.3799 25.4062 37.75 26.0371 37.75 26.8125C37.75 27.5879 38.3799 28.2188 39.1562 28.2188L41.9688 28.2188C42.7441 28.2188 43.375 28.8496 43.375 29.625C43.375 30.4004 42.7441 31.0312 41.9688 31.0312L39.1562 31.0312C38.3799 31.0312 37.75 31.6621 37.75 32.4375C37.75 33.2129 38.3799 33.8438 39.1562 33.8438C39.9316 33.8438 40.5625 34.4746 40.5625 35.25C40.5625 36.0254 39.9316 36.6562 39.1562 36.6562L27.376 36.6562C26.0127 36.6562 24.665 36.4375 23.3721 36.0059L18.0625 34.2363L18.0625 16.8359C20.2686 16.416 22.4277 15.0195 24.377 12.7324C26.2793 10.5 27.8232 7.53906 28.5039 4.8125L29.0039 2.8125L29.3125 2.8125C30.8633 2.8125 32.125 4.07422 32.125 5.625L32.125 7.03125C32.125 8.91797 31.5342 12.5391 30.7783 14.1562L27.9062 14.1562C27.1299 14.1562 26.5 14.7871 26.5 15.5625C26.5 16.3379 27.1299 16.9688 27.9062 16.9688L41.9688 16.9688C42.7441 16.9688 43.375 17.5996 43.375 18.375C43.375 19.1504 42.7441 19.7812 41.9688 19.7812L39.1562 19.7812C38.3799 19.7812 37.75 20.4121 37.75 21.1875C37.75 21.9629 38.3799 22.5938 39.1562 22.5938Z" fill="#FF5A30" fill-opacity="1.000000" fill-rule="nonzero"/>
	</g>
</svg>
