<svg width="42.187500" height="39.468750" viewBox="0 0 42.1875 39.4688" fill="none" xmlns="http://www.w3.org/2000/svg" xmlns:xlink="http://www.w3.org/1999/xlink">
	<desc>
			Created with Pixso.
	</desc>
	<defs/>
	<path id="Vector" d="M41.1104 21.1875C41.7793 20.4395 42.1875 19.4531 42.1875 18.375C42.1875 16.0488 40.2949 14.1562 37.9688 14.1562L29.7803 14.1562C30.5918 11.6953 30.9375 8.42969 30.9375 7.03125L30.9375 5.625C30.9375 2.52344 28.4141 0 25.3125 0L23.9062 0C23.2617 0 22.6992 0.439453 22.542 1.06445L21.7764 4.12891C20.7031 8.42188 17.2949 13.1562 13.7686 14.0176C13.1504 12.4531 11.625 11.3438 9.84375 11.3438L1.40625 11.3438C0.629883 11.3438 0 11.9746 0 12.75L0 38.0625C0 38.8379 0.629883 39.4688 1.40625 39.4688L9.84375 39.4688C11.5205 39.4688 12.9727 38.4844 13.6523 37.0645L18.4834 38.6738C20.0635 39.2012 21.71 39.4688 23.376 39.4688L35.1562 39.4688C37.4824 39.4688 39.375 37.5762 39.375 35.25C39.375 34.7012 39.2695 34.1758 39.0791 33.6953C40.8672 33.207 42.1875 31.5684 42.1875 29.625C42.1875 28.5469 41.7793 27.5605 41.1104 26.8125C41.7793 26.0645 42.1875 25.0781 42.1875 24C42.1875 22.9219 41.7793 21.9355 41.1104 21.1875ZM11.25 35.25C11.25 36.0254 10.6191 36.6562 9.84375 36.6562L2.8125 36.6562L2.8125 14.1562L9.84375 14.1562C10.6191 14.1562 11.25 14.7871 11.25 15.5625L11.25 35.25ZM35.1562 22.5938L37.9688 22.5938C38.7441 22.5938 39.375 23.2246 39.375 24C39.375 24.7754 38.7441 25.4062 37.9688 25.4062L35.1562 25.4062C34.3799 25.4062 33.75 26.0371 33.75 26.8125C33.75 27.5879 34.3799 28.2188 35.1562 28.2188L37.9688 28.2188C38.7441 28.2188 39.375 28.8496 39.375 29.625C39.375 30.4004 38.7441 31.0312 37.9688 31.0312L35.1562 31.0312C34.3799 31.0312 33.75 31.6621 33.75 32.4375C33.75 33.2129 34.3799 33.8438 35.1562 33.8438C35.9316 33.8438 36.5625 34.4746 36.5625 35.25C36.5625 36.0254 35.9316 36.6562 35.1562 36.6562L23.376 36.6562C22.0127 36.6562 20.665 36.4375 19.3721 36.0059L14.0625 34.2363L14.0625 16.8359C16.2686 16.416 18.4277 15.0195 20.377 12.7324C22.2793 10.5 23.8232 7.53906 24.5039 4.8125L25.0039 2.8125L25.3125 2.8125C26.8633 2.8125 28.125 4.07422 28.125 5.625L28.125 7.03125C28.125 8.91797 27.5342 12.5391 26.7783 14.1562L23.9062 14.1562C23.1299 14.1562 22.5 14.7871 22.5 15.5625C22.5 16.3379 23.1299 16.9688 23.9062 16.9688L37.9688 16.9688C38.7441 16.9688 39.375 17.5996 39.375 18.375C39.375 19.1504 38.7441 19.7812 37.9688 19.7812L35.1562 19.7812C34.3799 19.7812 33.75 20.4121 33.75 21.1875C33.75 21.9629 34.3799 22.5938 35.1562 22.5938Z" fill="#FF5A30" fill-opacity="1.000000" fill-rule="nonzero"/>
</svg>
