<svg width="11.578125" height="22.000000" viewBox="0 0 11.5781 22" fill="none" xmlns="http://www.w3.org/2000/svg" xmlns:xlink="http://www.w3.org/1999/xlink">
	<desc>
			Created with Pixso.
	</desc>
	<defs/>
	<path id="Vector" d="M11.1426 0.00488281L8.36523 0C5.24609 0 3.22852 2.125 3.22852 5.41406L3.22852 7.91016L0.4375 7.91016C0.195312 7.91016 0 8.11133 0 8.35938L0 11.9766C0 12.2246 0.195312 12.4248 0.4375 12.4248L3.22852 12.4248L3.22852 21.5518C3.22852 21.7988 3.42383 22 3.66602 22L7.30859 22C7.55078 22 7.74609 21.7988 7.74609 21.5518L7.74609 12.4248L11.0117 12.4248C11.252 12.4248 11.4473 12.2246 11.4473 11.9766L11.4492 8.35938C11.4492 8.24023 11.4023 8.12598 11.3203 8.04199C11.2383 7.95801 11.127 7.91016 11.0117 7.91016L7.74609 7.91016L7.74609 5.79395C7.74609 4.77734 7.98242 4.26074 9.27148 4.26074L11.1426 4.25977C11.3828 4.25977 11.5781 4.05957 11.5781 3.81152L11.5781 0.453125C11.5781 0.206055 11.3828 0.00488281 11.1426 0.00488281Z" fill="#787A80" fill-opacity="1.000000" fill-rule="nonzero"/>
</svg>
