<svg width="20.000000" height="20.000000" viewBox="0 0 20 20" fill="none" xmlns="http://www.w3.org/2000/svg" xmlns:xlink="http://www.w3.org/1999/xlink">
	<desc>
			Created with Pixso.
	</desc>
	<defs/>
	<path id="Vector" d="M0 2.40137C0 1.07617 1.07617 0 2.40234 0C3.72656 0 4.80273 1.07617 4.80273 2.40137C4.80273 3.72754 3.72656 4.82617 2.40234 4.82617C1.07617 4.82617 0 3.72754 0 2.40137ZM19.9941 20L20 19.999L20 12.6641C20 9.07617 19.2266 6.31152 15.0332 6.31152C13.0156 6.31152 11.6621 7.41797 11.1094 8.46777L11.0508 8.46777L11.0508 6.64648L7.07422 6.64648L7.07422 19.999L11.2168 19.999L11.2168 13.3877C11.2168 11.6465 11.5449 9.96289 13.7012 9.96289C15.8262 9.96289 15.8574 11.9502 15.8574 13.499L15.8574 20L19.9941 20ZM0.330078 6.64746L4.47656 6.64746L4.47656 20L0.330078 20L0.330078 6.64746Z" fill="#787A80" fill-opacity="1.000000" fill-rule="evenodd"/>
</svg>
