<svg width="21.000000" height="16.333008" viewBox="0 0 21 16.333" fill="none" xmlns="http://www.w3.org/2000/svg" xmlns:xlink="http://www.w3.org/1999/xlink">
	<desc>
			Created with Pixso.
	</desc>
	<defs/>
	<path id="Vector" d="M21 1.93262C20.2266 2.26074 19.3984 2.48242 18.5273 2.58203C19.416 2.07227 20.0977 1.2627 20.4199 0.301758C19.5859 0.774414 18.6641 1.11719 17.6816 1.30273C16.8965 0.5 15.7793 0 14.5391 0C12.1602 0 10.2305 1.84668 10.2305 4.12402C10.2305 4.44629 10.2676 4.76172 10.3418 5.06348C6.76172 4.8916 3.58789 3.24902 1.46289 0.753906C1.0918 1.3623 0.880859 2.07031 0.880859 2.82715C0.880859 4.25781 1.64258 5.52148 2.79688 6.25977C2.08984 6.2373 1.42578 6.05176 0.845703 5.74219L0.845703 5.79395C0.845703 7.79199 2.33008 9.45898 4.30078 9.83887C3.93945 9.93164 3.55859 9.9834 3.16602 9.9834C2.88672 9.9834 2.61719 9.95703 2.35352 9.90625C2.90234 11.5459 4.49219 12.7383 6.37695 12.7715C4.9043 13.877 3.04492 14.5342 1.02734 14.5342C0.679688 14.5342 0.337891 14.5137 0 14.4775C1.90625 15.6494 4.16992 16.333 6.60352 16.333C14.5273 16.333 18.8594 10.0479 18.8594 4.59766L18.8457 4.06348C19.6914 3.48535 20.4238 2.75977 21 1.93262Z" fill="#787A80" fill-opacity="1.000000" fill-rule="nonzero"/>
</svg>
