<svg width="18.333984" height="18.333008" viewBox="0 0 18.334 18.333" fill="none" xmlns="http://www.w3.org/2000/svg" xmlns:xlink="http://www.w3.org/1999/xlink">
	<desc>
			Created with Pixso.
	</desc>
	<defs/>
	<path id="Union" d="M0 9.16699C0 4.10449 4.10352 0 9.16602 0C14.2285 0 18.334 4.10449 18.334 9.16699C18.334 14.2295 14.2285 18.333 9.16602 18.333C4.10352 18.333 0 14.2295 0 9.16699ZM9.16602 1.66699C5.02539 1.66699 1.66602 5.02441 1.66602 9.16699C1.66602 13.3086 5.02539 16.667 9.16602 16.667C13.3086 16.667 16.666 13.3086 16.666 9.16699C16.666 5.02441 13.3086 1.66699 9.16602 1.66699ZM9.16602 3.75C9.62695 3.75 10 4.12305 10 4.58301L10 8.82129L12.2559 11.0771C12.582 11.4033 12.582 11.9307 12.2559 12.2559C11.9297 12.5811 11.4023 12.5811 11.0781 12.2559L8.57812 9.75586C8.42188 9.59961 8.33398 9.3877 8.33398 9.16699L8.33398 4.58301C8.33398 4.12305 8.70703 3.75 9.16602 3.75Z" fill="#787A80" fill-opacity="1.000000" fill-rule="evenodd"/>
</svg>
