<svg width="18.042969" height="16.035156" viewBox="0 0 18.043 16.0352" fill="none" xmlns="http://www.w3.org/2000/svg" xmlns:xlink="http://www.w3.org/1999/xlink">
	<desc>
			Created with Pixso.
	</desc>
	<defs/>
	<path id="Vector" d="M8.04297 0C5.91992 0 3.96875 0.657227 2.5293 1.75781C1.08789 2.85938 0.126953 4.44043 0.126953 6.25C0.126953 7.10449 0.341797 7.91504 0.726562 8.64746C0.726562 8.67969 0.724609 8.72656 0.71875 8.79004C0.703125 8.97461 0.658203 9.22363 0.589844 9.52051C0.453125 10.1094 0.242188 10.791 0.0644531 11.3301C-0.269531 12.3477 0.744141 13.3027 1.73828 12.916C2.3125 12.6924 3.06641 12.415 3.73828 12.2197C4.07422 12.1211 4.37109 12.0488 4.60352 12.0127C4.75781 11.9883 4.83984 11.9873 4.87109 11.9863C4.87891 11.9863 4.88477 11.9863 4.88477 11.9854C5.85547 12.3174 6.92383 12.5 8.04297 12.5C10.166 12.5 12.1191 11.8428 13.5586 10.7422C14.998 9.64062 15.959 8.05957 15.959 6.25C15.959 4.44043 14.998 2.85938 13.5586 1.75781C12.1191 0.657227 10.166 0 8.04297 0ZM1.79297 6.25C1.79297 5.06836 2.41797 3.94043 3.54102 3.08203C4.66406 2.22266 6.25391 1.66699 8.04297 1.66699C9.83203 1.66699 11.4219 2.22266 12.5449 3.08203C13.6699 3.94043 14.293 5.06836 14.293 6.25C14.293 7.43164 13.6699 8.55957 12.5449 9.41797C11.4219 10.2773 9.83203 10.833 8.04297 10.833C7.09375 10.833 6.19922 10.6768 5.39844 10.4004C5.04297 10.2764 4.62891 10.3213 4.34375 10.3662C4.01172 10.4189 3.63867 10.5117 3.27148 10.6191C2.81445 10.7529 2.33398 10.916 1.89258 11.0762C2.00977 10.6914 2.12305 10.2812 2.21289 9.89746C2.28906 9.56836 2.35156 9.23535 2.37891 8.94043C2.39258 8.79297 2.39844 8.63574 2.38672 8.4834C2.375 8.34277 2.34375 8.13574 2.23438 7.93457C1.94727 7.40625 1.79297 6.83887 1.79297 6.25ZM16.3301 9.46191C16.7461 8.74316 17.0273 7.96191 17.1465 7.13965C17.7129 7.96973 18.043 8.93945 18.043 10C18.043 10.9414 17.7734 11.8262 17.3047 12.6025C17.3008 12.6201 17.2949 12.6533 17.291 12.707C17.2812 12.835 17.2832 13.0098 17.2969 13.2227C17.3262 13.6465 17.4004 14.1348 17.4707 14.5352C17.6348 15.4658 16.7461 16.2656 15.8281 15.9746C15.3965 15.8369 14.8418 15.6729 14.3477 15.5615C14.0996 15.5059 13.8848 15.4668 13.7188 15.4502C13.6113 15.4385 13.5547 15.4404 13.5352 15.4404L13.5352 15.4404L13.5273 15.4404C12.7285 15.6953 11.8633 15.834 10.959 15.834C8.65039 15.834 6.48438 14.8945 5.16992 13.374C6.07227 13.6182 7.03906 13.75 8.04297 13.75C8.2168 13.75 8.38867 13.7461 8.55859 13.7383C9.26953 14.0107 10.0781 14.167 10.959 14.167C11.7012 14.167 12.4043 14.0518 13.043 13.8447C13.3359 13.751 13.6641 13.7686 13.8887 13.792C14.1484 13.8193 14.4355 13.873 14.7148 13.9355C15.0508 14.0117 15.4043 14.1074 15.7285 14.2021C15.6895 13.9199 15.6543 13.6201 15.6348 13.3359C15.6172 13.082 15.6113 12.8174 15.6309 12.5762C15.6465 12.3652 15.6895 12.0459 15.8574 11.7734C16.1953 11.2285 16.377 10.6279 16.377 10C16.377 9.81934 16.3613 9.63965 16.3301 9.46191Z" fill="#787A80" fill-opacity="1.000000" fill-rule="evenodd"/>
</svg>
